<svg width="709" height="271" viewBox="0 0 709 271" fill="none" xmlns="http://www.w3.org/2000/svg">
    <circle cx="418" cy="152" r="9" fill="#3A3630"/>
    <circle cx="418" cy="152" r="7" fill="#3A3630" stroke="#E4DECE"/>
    <circle cx="380" cy="262" r="9" fill="#3A3630"/>
    <circle cx="380" cy="262" r="7" fill="#3A3630" stroke="#E4DECE"/>
    <circle cx="673" cy="170" r="9" fill="#3A3630"/>
    <circle cx="673" cy="170" r="7" fill="#3A3630" stroke="#E4DECE"/>
    <circle cx="700" cy="145" r="9" fill="#3A3630"/>
    <circle cx="700" cy="145" r="7" fill="#3A3630" stroke="#E4DECE"/>
    <circle cx="389" cy="118" r="9" fill="#3A3630"/>
    <circle cx="389" cy="118" r="7" fill="#3A3630" stroke="#E4DECE"/>
    <circle cx="377" cy="77" r="9" fill="#3A3630"/>
    <circle cx="377" cy="77" r="7" fill="#3A3630" stroke="#E4DECE"/>
    <circle cx="322" cy="81" r="9" fill="#3A3630"/>
    <circle cx="322" cy="81" r="7" fill="#3A3630" stroke="#E4DECE"/>
    <circle cx="354" cy="63" r="9" fill="#3A3630"/>
    <circle cx="354" cy="63" r="7" fill="#3A3630" stroke="#E4DECE"/>
    <circle cx="9" cy="65" r="9" fill="#3A3630"/>
    <circle cx="9" cy="65" r="7" fill="#3A3630" stroke="#E4DECE"/>
    <circle cx="37" cy="101" r="9" fill="#3A3630"/>
    <circle cx="37" cy="101" r="7" fill="#3A3630" stroke="#E4DECE"/>
    <circle cx="86" cy="108" r="9" fill="#3A3630"/>
    <circle cx="86" cy="108" r="7" fill="#3A3630" stroke="#E4DECE"/>
    <circle cx="37" cy="188" r="9" fill="#3A3630"/>
    <circle cx="37" cy="188" r="7" fill="#3A3630" stroke="#E4DECE"/>
    <circle cx="348" cy="9" r="9" fill="#3A3630"/>
    <circle cx="348" cy="9" r="7" fill="#3A3630" stroke="#E4DECE"/>
    <circle cx="364" cy="31" r="9" fill="#3A3630"/>
    <circle cx="364" cy="31" r="7" fill="#3A3630" stroke="#E4DECE"/>
    <circle cx="394" cy="9" r="9" fill="#3A3630"/>
    <circle cx="394" cy="9" r="7" fill="#3A3630" stroke="#E4DECE"/>
</svg>
