<svg width="30" height="28" viewBox="0 0 30 28" fill="none" xmlns="http://www.w3.org/2000/svg">
<path d="M1.5092 5.34714L2.37751 5.24123L2.39198 5.26113C2.55048 5.47929 2.74949 5.7551 2.99223 6.09696L9.23493 2.49274C9.04383 2.22936 8.8681 1.99282 8.70734 1.78277L8.68529 1.75392L8.71057 1.72834L9.5626 0.863631L9.57192 0.854209L9.58504 0.851987L10.5119 0.699904L10.527 0.720237C11.4376 1.93935 13.1344 4.74634 17.2392 11.3612C18.3842 10.9659 19.5964 10.6014 20.6622 10.3373C21.4223 10.149 22.109 10.0115 22.6441 9.95044C22.9116 9.91993 23.1426 9.90838 23.3265 9.91952C23.5082 9.93052 23.6522 9.964 23.7383 10.0308C23.9574 10.201 24.1379 10.5159 24.2325 10.8039C24.28 10.9483 24.3069 11.0893 24.3052 11.2052C24.3036 11.3161 24.275 11.4178 24.1961 11.4663C24.1623 11.4949 24.1281 11.5241 24.0934 11.5539C24.1894 11.7048 24.2939 11.8704 24.4052 12.0479C24.8739 12.7954 25.4637 13.7541 26.047 14.7089C27.2132 16.6181 28.3539 18.5133 28.4473 18.6751C28.4928 18.7539 28.4879 18.8447 28.4578 18.9331C28.4276 19.0215 28.3705 19.1133 28.3024 19.2007C28.166 19.3757 27.9786 19.5419 27.8477 19.6416L27.8289 19.656L27.8069 19.6468L27.0085 19.311L26.9994 19.3071L26.993 19.2996C26.8128 19.0894 26.5784 18.7421 26.2896 18.2806C26.0003 17.8185 25.655 17.2397 25.2527 16.5654C24.6071 15.4834 23.814 14.1547 22.8687 12.6642C22.0134 13.4686 21.0582 14.4116 20.1901 15.2772C20.0822 15.3848 19.9758 15.4912 19.8709 15.596C22.0337 19.0694 22.7569 20.2097 22.8272 20.3089L22.8479 20.3382L22.8223 20.3628L22.218 20.9461L21.5561 21.3283L21.5346 21.2951C21.1298 20.6694 20.1447 19.1425 18.6488 16.8179C18.5621 16.9044 18.479 16.9874 18.3996 17.0661C18.1584 17.3054 17.953 17.5068 17.7951 17.657C17.7273 17.7215 17.6675 17.777 17.6172 17.8224C18.1032 18.6063 18.6836 19.5555 19.2588 20.5018C20.5604 22.643 21.836 24.77 21.9299 24.9327C21.9758 25.0123 21.9702 25.104 21.9389 25.1934C21.9076 25.2829 21.8489 25.376 21.7789 25.4647C21.6388 25.6424 21.4469 25.8116 21.313 25.9132L21.2991 25.9238L20.4971 25.7975L20.4768 25.7943L20.467 25.7762C19.9521 24.835 18.0342 21.5262 15.7714 17.9939C15.7551 17.9933 15.7388 17.9928 15.7224 17.9922C15.4173 17.9808 15.0834 17.9688 14.7294 17.9609C13.5384 17.9345 12.1224 17.9544 10.8154 18.1981C12.4289 20.853 13.4637 22.6575 14.1192 23.8449C14.5041 24.5422 14.7583 25.0266 14.9223 25.3454C15.0042 25.5047 15.0637 25.6227 15.1054 25.7049C15.1481 25.7888 15.1707 25.832 15.1805 25.8461L15.2001 25.8745L14.6383 26.4498L14.6344 26.4538L14.0247 26.8058L14.0033 26.7723C13.6737 26.2564 13.0602 25.1445 12.1094 23.5003C11.1578 21.8549 9.86675 19.6737 8.17992 17.0155C4.80634 11.6994 2.00258 7.96316 0.720507 6.23676L0.699902 6.20895L1.48413 5.36002L1.49429 5.34899L1.5092 5.34714ZM6.88567 11.9036C7.74842 13.2461 8.73714 14.8144 9.86214 16.6405L15.5924 12.0631C15.5544 12.004 15.5163 11.9446 15.4781 11.885C14.5387 10.422 13.6881 9.10789 12.9229 7.93793L6.88567 11.9036Z" fill="#E4DECE" stroke="#3A3630" stroke-width="1.4" stroke-linejoin="round"/>
</svg>
