<svg width="30" height="32" viewBox="0 0 30 32" fill="none" xmlns="http://www.w3.org/2000/svg">
<path d="M1.40869 7.44459L0.649579 8.26157C1.91483 9.96109 4.68251 13.6398 8.00902 18.8767C11.3355 24.1136 13.0984 27.473 13.747 28.4871L14.315 28.1592L14.8516 27.6127C14.7578 27.4775 13.882 25.4742 9.66562 18.6303C5.4492 11.7864 3.16134 8.59446 2.24723 7.33916L1.40869 7.44459Z" fill="#3A3630" stroke="#3A3630"/>
<path d="M9.44794 2.96864L8.59821 3.82643C9.85127 5.45919 12.0236 8.71498 15.2771 13.7767C18.5306 18.8385 20.6134 22.0638 21.2482 23.0437L21.8689 22.6853L22.4679 22.11C22.3755 21.9798 21.1624 20.0638 17.0495 13.4419C12.9367 6.82001 11.2479 4.02553 10.3441 2.81845L9.44794 2.96864Z" fill="#3A3630" stroke="#3A3630"/>
<path d="M9.85054 20.1804C9.79588 20.0858 9.57287 19.7159 9.11811 18.9938L15.6039 13.8291C18.5768 12.665 22.8294 11.5036 23.4264 11.9637C23.842 12.284 24.1233 13.1708 23.8748 13.3143C21.742 15.1137 17.5806 19.4667 17.1709 19.741C16.7613 20.0154 12.8268 19.3773 9.85054 20.1804Z" fill="#3A3630" stroke="#3A3630"/>
<path d="M20.9485 27.5957L20.1699 27.4771C19.6093 26.4517 17.3617 22.5801 14.8302 18.7112C15.1338 18.2834 15.8195 17.515 16.1343 17.8634C16.5278 18.299 21.3701 26.3581 21.5546 26.6777C21.7022 26.9333 21.212 27.3962 20.9485 27.5957Z" fill="#3A3630"/>
<path d="M14.7852 18.6424C14.8002 18.6653 14.8153 18.6883 14.8302 18.7112M14.8302 18.7112C17.3617 22.5801 19.6093 26.4517 20.1699 27.4771L20.9485 27.5957C21.212 27.3962 21.7022 26.9333 21.5546 26.6777C21.3701 26.3581 16.5278 18.299 16.1343 17.8634C15.8195 17.515 15.1338 18.2834 14.8302 18.7112Z" stroke="#3A3630"/>
<path d="M27.4637 21.3726L26.6725 21.0445C25.9697 20.228 24.4044 17.244 21.8938 13.3998C22.1889 12.9786 22.8569 12.223 23.1682 12.5698C23.5574 13.0033 27.8693 20.1511 28.0525 20.4684C28.1991 20.7223 27.721 21.177 27.4637 21.3726Z" fill="#3A3630"/>
<path d="M21.8491 13.3314C21.864 13.3542 21.8789 13.377 21.8938 13.3998M21.8938 13.3998C24.4044 17.244 25.9697 20.228 26.6725 21.0445L27.4637 21.3726C27.721 21.177 28.1991 20.7223 28.0525 20.4684C27.8693 20.1511 23.5574 13.0033 23.1682 12.5698C22.8569 12.223 22.1889 12.9786 21.8938 13.3998Z" stroke="#3A3630"/>
<path d="M4.63651 11.1873C3.42152 9.30591 2.86234 8.45512 2.73462 8.26489L9.93935 4.10524L13.4266 9.40172L6.45927 13.9726C6.35793 13.828 5.8515 13.0686 4.63651 11.1873Z" fill="#3A3630" stroke="#3A3630"/>
</svg>
